<?xml version="1.0" encoding="UTF-8" standalone="no"?>
<!DOCTYPE svg PUBLIC "-//W3C//DTD SVG 1.1//EN" "http://www.w3.org/Graphics/SVG/1.1/DTD/svg11.dtd">
<svg width="100%" height="100%" viewBox="0 0 231 240" version="1.1" xmlns="http://www.w3.org/2000/svg" xmlns:xlink="http://www.w3.org/1999/xlink" xml:space="preserve" xmlns:serif="http://www.serif.com/" style="fill-rule:evenodd;clip-rule:evenodd;stroke-linecap:round;stroke-linejoin:round;stroke-miterlimit:1.5;">
    <g transform="matrix(1,0,0,1,-855.854165,-0.5)">
        <g transform="matrix(1.16129,0,0,0.974194,658.5867,-49.774194)">
            <path d="M191.591,212.107C180.626,210.925 172.022,199.926 172.022,186.549C172.022,172.386 181.668,160.887 193.55,160.887C196.506,160.887 199.324,161.599 201.889,162.887C215.416,140.206 240.196,125 268.5,125C273.822,125 279.02,125.538 284.042,126.562C286.814,115.579 292.685,106.191 300.441,99.842C298.202,95.331 296.917,90.07 296.917,84.454C296.917,67.741 308.299,54.172 322.319,54.172C336.34,54.172 347.722,67.741 347.722,84.454C347.722,89.284 346.772,93.851 345.081,97.904C357.474,106.544 365.806,122.577 365.806,140.911C365.806,159.802 356.959,176.251 343.939,184.685C345.287,190.406 346,196.37 346,202.5C346,207.136 345.592,211.677 344.81,216.09C351.831,222.769 356.333,233.056 356.333,244.586C356.333,264.698 342.636,281.026 325.764,281.026C317.617,281.026 310.21,277.219 304.728,271.017C299.371,273.857 293.642,276.088 287.634,277.616C284.504,286.834 276.92,293.344 268.069,293.344C259.141,293.344 251.5,286.718 248.422,277.369C240.498,275.247 233.072,271.898 226.362,267.539C225.433,269.223 224.378,270.8 223.212,272.249C224.777,274.61 225.712,277.592 225.712,280.832C225.712,288.48 220.503,294.689 214.087,294.689C208.103,294.689 203.17,289.289 202.532,282.358C187.689,281.858 175.767,267.338 175.767,249.524C175.767,235.837 182.805,224.094 192.798,219.161C192.291,216.846 191.886,214.493 191.591,212.107Z" style="fill:rgb(211,211,211);stroke:rgb(211,211,211);stroke-width:4.66px;"/>
        </g>
    </g>
</svg>
