<?xml version="1.0" encoding="UTF-8" standalone="no"?>
<!DOCTYPE svg PUBLIC "-//W3C//DTD SVG 1.1//EN" "http://www.w3.org/Graphics/SVG/1.1/DTD/svg11.dtd">
<svg width="100%" height="100%" viewBox="0 0 231 240" version="1.1" xmlns="http://www.w3.org/2000/svg" xmlns:xlink="http://www.w3.org/1999/xlink" xml:space="preserve" xmlns:serif="http://www.serif.com/" style="fill-rule:evenodd;clip-rule:evenodd;stroke-linejoin:round;stroke-miterlimit:2;">
    <g transform="matrix(1,0,0,1,-522.691852,-303.027668)">
        <g transform="matrix(0.613811,0,0,0.691643,-23.991668,230.596832)">
            <g transform="matrix(1.629167,0,0,1.445833,-679,-78.175)">
                <g transform="matrix(1.16129,0,0,0.974194,766.193548,76.225806)">
                    <path d="M191.591,212.107C180.626,210.925 172.022,199.926 172.022,186.549C172.022,172.386 181.668,160.887 193.55,160.887C196.506,160.887 199.324,161.599 201.889,162.887C215.416,140.206 240.196,125 268.5,125C273.822,125 279.02,125.538 284.042,126.562C286.814,115.579 292.685,106.191 300.441,99.842C298.202,95.331 296.917,90.07 296.917,84.454C296.917,67.741 308.299,54.172 322.319,54.172C336.34,54.172 347.722,67.741 347.722,84.454C347.722,89.284 346.772,93.851 345.081,97.904C357.474,106.544 365.806,122.577 365.806,140.911C365.806,159.802 356.959,176.251 343.939,184.685C345.287,190.406 346,196.37 346,202.5C346,207.136 345.592,211.677 344.81,216.09C351.831,222.769 356.333,233.056 356.333,244.586C356.333,264.698 342.636,281.026 325.764,281.026C317.617,281.026 310.21,277.219 304.728,271.017C299.371,273.857 293.642,276.088 287.634,277.616C284.504,286.834 276.92,293.344 268.069,293.344C259.141,293.344 251.5,286.718 248.422,277.369C240.498,275.247 233.072,271.898 226.362,267.539C225.433,269.223 224.378,270.8 223.212,272.249C224.777,274.61 225.712,277.592 225.712,280.832C225.712,288.48 220.503,294.689 214.087,294.689C208.103,294.689 203.17,289.289 202.532,282.358C187.689,281.858 175.767,267.338 175.767,249.524C175.767,235.837 182.805,224.094 192.798,219.161C192.291,216.846 191.886,214.493 191.591,212.107Z" style="fill:rgb(211,211,211);"/>
                </g>
                <g transform="matrix(1.16129,0,0,0.974194,766.193548,76.225806)">
                    <path d="M189.724,214.41C178.471,212.226 169.869,200.576 169.869,186.549C169.869,170.97 180.48,158.321 193.55,158.321C196.196,158.321 198.74,158.84 201.117,159.796C215.201,137.395 240.112,122.434 268.5,122.434C273.299,122.434 277.999,122.861 282.564,123.68C285.456,113.798 290.764,105.261 297.644,99.08C295.801,94.675 294.764,89.707 294.764,84.454C294.764,66.325 307.111,51.606 322.319,51.606C337.528,51.606 349.875,66.325 349.875,84.454C349.875,88.859 349.146,93.063 347.824,96.903C359.935,106.227 367.958,122.461 367.958,140.911C367.958,160.052 359.322,176.808 346.445,185.938C347.564,191.283 348.153,196.824 348.153,202.5C348.153,206.784 347.817,210.99 347.172,215.094C354.101,222.248 358.486,232.812 358.486,244.586C358.486,266.114 343.824,283.593 325.764,283.593C317.56,283.593 310.057,279.986 304.311,274.031C299.522,276.459 294.455,278.416 289.17,279.84C285.477,289.326 277.413,295.911 268.069,295.911C258.639,295.911 250.512,289.203 246.867,279.575C239.806,277.575 233.143,274.621 227.028,270.863C226.68,271.412 226.319,271.947 225.945,272.47C227.164,274.92 227.864,277.779 227.864,280.832C227.864,289.896 221.691,297.256 214.087,297.256C207.631,297.256 202.207,291.951 200.716,284.803C185.538,283.226 173.614,268.022 173.614,249.524C173.614,235.553 180.415,223.461 190.283,217.701C190.074,216.611 189.888,215.514 189.724,214.41ZM193.72,211.732C194.004,214.025 194.393,216.287 194.881,218.511C195.153,219.752 194.616,221.041 193.622,221.532C184.409,226.08 177.92,236.905 177.92,249.524C177.92,265.946 188.909,279.332 202.592,279.793C203.667,279.829 204.554,280.805 204.671,282.078C205.191,287.725 209.212,292.123 214.087,292.123C219.315,292.123 223.559,287.064 223.559,280.832C223.559,278.193 222.798,275.764 221.523,273.841C220.856,272.835 220.914,271.398 221.658,270.473C222.733,269.136 223.707,267.682 224.564,266.129C225.179,265.014 226.409,264.647 227.393,265.286C233.933,269.534 241.17,272.797 248.894,274.866C249.591,275.052 250.165,275.639 250.426,276.432C253.19,284.827 260.051,290.778 268.069,290.778C276.017,290.778 282.828,284.931 285.639,276.653C285.907,275.863 286.486,275.284 287.185,275.106C293.043,273.616 298.63,271.442 303.853,268.672C304.648,268.25 305.578,268.441 306.21,269.155C311.305,274.921 318.191,278.46 325.764,278.46C341.447,278.46 354.181,263.282 354.181,244.586C354.181,233.867 349.994,224.305 343.467,218.096C342.831,217.491 342.536,216.509 342.704,215.56C343.455,211.319 343.847,206.955 343.847,202.5C343.847,196.609 343.162,190.877 341.866,185.379C341.595,184.226 342.028,183.002 342.911,182.43C355.261,174.43 363.653,158.83 363.653,140.911C363.653,123.521 355.749,108.314 343.994,100.119C343.017,99.438 342.649,97.971 343.154,96.762C344.7,93.053 345.569,88.873 345.569,84.454C345.569,69.157 335.151,56.738 322.319,56.738C309.487,56.738 299.069,69.157 299.069,84.454C299.069,89.593 300.245,94.407 302.294,98.535C302.871,99.697 302.593,101.193 301.66,101.957C294.303,107.979 288.733,116.884 286.103,127.301C285.79,128.542 284.75,129.309 283.679,129.091C278.774,128.091 273.698,127.566 268.5,127.566C240.953,127.566 216.809,142.299 203.644,164.374C203.059,165.353 201.983,165.718 201.054,165.252C198.745,164.093 196.21,163.453 193.55,163.453C182.856,163.453 174.175,173.802 174.175,186.549C174.175,198.587 181.917,208.488 191.784,209.551C192.775,209.657 193.575,210.559 193.72,211.732Z" style="fill:rgb(119,119,119);"/>
                </g>
                <g>
                    <g transform="matrix(0.258065,0,0,0.258065,928.020035,270.052293)">
                        <circle cx="268.5" cy="202.5" r="77.5" style="fill:rgb(230,228,228);"/>
                    </g>
                    <g transform="matrix(0.109677,0,0,0.109677,985.36197,327.60068)">
                        <circle cx="268.5" cy="202.5" r="77.5" style="fill:rgb(230,228,228);"/>
                    </g>
                    <g transform="matrix(0.180645,0,0,0.106262,1028.996774,328.147889)">
                        <path d="M268.5,202.5C311.273,202.5 346,159.727 346,202.5C346,245.273 311.273,280 268.5,280C225.727,280 191,245.273 191,202.5C191,159.727 225.727,202.5 268.5,202.5Z" style="fill:rgb(230,228,228);"/>
                    </g>
                    <g transform="matrix(0.316129,0,0,0.316129,1059.619355,250.483871)">
                        <circle cx="268.5" cy="202.5" r="77.5" style="fill:rgb(230,228,228);"/>
                    </g>
                    <g transform="matrix(0.470968,0,0,0.470968,1016.045161,118.129032)">
                        <circle cx="268.5" cy="202.5" r="77.5" style="fill:rgb(230,228,228);"/>
                    </g>
                    <g transform="matrix(0.2,0,0,0.2,1086.8,115)">
                        <circle cx="268.5" cy="202.5" r="77.5" style="fill:rgb(230,228,228);"/>
                    </g>
                    <g transform="matrix(0.206452,0,0,0.206452,935.528755,216.154562)">
                        <circle cx="268.5" cy="202.5" r="77.5" style="fill:rgb(230,228,228);"/>
                    </g>
                </g>
                <g transform="matrix(0.903226,0,0,0.757706,835.483871,120.064516)">
                    <circle cx="268.5" cy="202.5" r="77.5" style="fill:rgb(241,241,241);"/>
                </g>
                <!-- dizzy blush -->
                <g transform="matrix(0.129708,0,0,0.129708,1002.272165,265.557352)">
                    <circle cx="268.5" cy="202.5" r="94" style="fill:rgb(245,168,168);"/>
                </g>
                <g transform="matrix(0.129708,0,0,0.129708,1083.54588,265.557352)">
                    <circle cx="268.5" cy="202.5" r="94" style="fill:rgb(245,168,168);"/>
                </g>
                <!-- swirly seeing-stars eyes -->
                <g transform="matrix(0.206452,0,0,0.206452,998.528755,217.154562)">
                    <path d="M268.5,202.5 L271.83,205.83 L268.5,211.92 L258.5,212.5 L249.65,202.5 L251.84,185.84 L268.5,174.23 L291.82,179.18 L306.2,202.5 L298.48,232.48 L268.5,249.62 L231.85,239.15 L211.95,202.5 L225.18,159.19 L268.5,136.53 L318.48,152.52 L343.9,202.5" style="fill:none;stroke:rgb(85,85,85);stroke-width:14;stroke-linecap:round;stroke-linejoin:round;"/>
                </g>
                <g transform="matrix(0.206452,0,0,0.206452,1044.602852,216.154562)">
                    <path d="M268.5,202.5 L271.83,205.83 L268.5,211.92 L258.5,212.5 L249.65,202.5 L251.84,185.84 L268.5,174.23 L291.82,179.18 L306.2,202.5 L298.48,232.48 L268.5,249.62 L231.85,239.15 L211.95,202.5 L225.18,159.19 L268.5,136.53 L318.48,152.52 L343.9,202.5" style="fill:none;stroke:rgb(85,85,85);stroke-width:14;stroke-linecap:round;stroke-linejoin:round;"/>
                </g>
                <!-- woozy wavy mouth -->
                <g transform="matrix(0.322581,0,0,0.240261,991.106468,241.925084)">
                    <path d="M228,225 Q248,205 268.5,225 Q289,245 309,225" style="fill:none;stroke:rgb(119,119,119);stroke-width:14;stroke-linecap:round;stroke-linejoin:round;"/>
                </g>
            </g>
        </g>
    </g>
</svg>
