<?xml version="1.0" encoding="UTF-8" standalone="no"?>
<!DOCTYPE svg PUBLIC "-//W3C//DTD SVG 1.1//EN" "http://www.w3.org/Graphics/SVG/1.1/DTD/svg11.dtd">
<svg width="100%" height="100%" viewBox="0 0 233 240" version="1.1" xmlns="http://www.w3.org/2000/svg" xmlns:xlink="http://www.w3.org/1999/xlink" xml:space="preserve" xmlns:serif="http://www.serif.com/" style="fill-rule:evenodd;clip-rule:evenodd;stroke-linecap:round;stroke-linejoin:round;stroke-miterlimit:1.5;">
    <g transform="matrix(1,0,0,1,-537.393152,-22)">
        <g id="Expanded" transform="matrix(0.595908,0,0,0.691643,10.014635,-49.930836)">
            <rect x="885" y="104" width="391" height="347" style="fill:none;"/>
            <clipPath id="_clip1">
                <rect x="885" y="104" width="391" height="347"/>
            </clipPath>
            <g clip-path="url(#_clip1)">
                <g transform="matrix(1.678112,0,0,1.445833,-732.699571,-78.175)">
                    <g transform="matrix(1.16129,0,0,0.974194,766.193548,76.225806)">
                        <path d="M191.591,212.107C180.626,210.925 172.022,199.926 172.022,186.549C172.022,172.386 181.668,160.887 193.55,160.887C196.506,160.887 199.324,161.599 201.889,162.887C215.416,140.206 240.196,125 268.5,125C273.822,125 279.02,125.538 284.042,126.562C286.814,115.579 292.685,106.191 300.441,99.842C298.202,95.331 296.917,90.07 296.917,84.454C296.917,67.741 308.299,54.172 322.319,54.172C336.34,54.172 347.722,67.741 347.722,84.454C347.722,89.284 346.772,93.851 345.081,97.904C357.474,106.544 365.806,122.577 365.806,140.911C365.806,159.802 356.959,176.251 343.939,184.685C345.287,190.406 346,196.37 346,202.5C346,207.136 345.592,211.677 344.81,216.09C351.831,222.769 356.333,233.056 356.333,244.586C356.333,264.698 342.636,281.026 325.764,281.026C317.617,281.026 310.21,277.219 304.728,271.017C299.371,273.857 293.642,276.088 287.634,277.616C284.504,286.834 276.92,293.344 268.069,293.344C259.141,293.344 251.5,286.718 248.422,277.369C240.498,275.247 233.072,271.898 226.362,267.539C225.433,269.223 224.378,270.8 223.212,272.249C224.777,274.61 225.712,277.592 225.712,280.832C225.712,288.48 220.503,294.689 214.087,294.689C208.103,294.689 203.17,289.289 202.532,282.358C187.689,281.858 175.767,267.338 175.767,249.524C175.767,235.837 182.805,224.094 192.798,219.161C192.291,216.846 191.886,214.493 191.591,212.107Z" style="fill:rgb(211,211,211);stroke:rgb(119,119,119);stroke-width:4.66px;"/>
                    </g>
                    <g>
                        <g transform="matrix(0.258065,0,0,0.258065,928.020035,270.052293)">
                            <circle cx="268.5" cy="202.5" r="77.5" style="fill:rgb(230,228,228);"/>
                        </g>
                        <g transform="matrix(0.109677,0,0,0.109677,985.36197,327.60068)">
                            <circle cx="268.5" cy="202.5" r="77.5" style="fill:rgb(230,228,228);"/>
                        </g>
                        <g transform="matrix(0.180645,0,0,0.106262,1028.996774,328.147889)">
                            <path d="M268.5,202.5C311.273,202.5 346,159.727 346,202.5C346,245.273 311.273,280 268.5,280C225.727,280 191,245.273 191,202.5C191,159.727 225.727,202.5 268.5,202.5Z" style="fill:rgb(230,228,228);"/>
                        </g>
                        <g transform="matrix(0.316129,0,0,0.316129,1059.619355,250.483871)">
                            <circle cx="268.5" cy="202.5" r="77.5" style="fill:rgb(230,228,228);"/>
                        </g>
                        <g transform="matrix(0.470968,0,0,0.470968,1016.045161,118.129032)">
                            <circle cx="268.5" cy="202.5" r="77.5" style="fill:rgb(230,228,228);"/>
                        </g>
                        <g transform="matrix(0.2,0,0,0.2,1086.8,115)">
                            <circle cx="268.5" cy="202.5" r="77.5" style="fill:rgb(230,228,228);"/>
                        </g>
                        <g transform="matrix(0.206452,0,0,0.206452,935.528755,216.154562)">
                            <circle cx="268.5" cy="202.5" r="77.5" style="fill:rgb(230,228,228);"/>
                        </g>
                    </g>
                    <g transform="matrix(0.903226,0,0,0.757706,835.483871,120.064516)">
                        <circle cx="268.5" cy="202.5" r="77.5" style="fill:rgb(241,241,241);"/>
                    </g>
                    <g transform="matrix(0.206452,0,0,0.206452,998.528755,217.154562)">
                        <circle cx="268.5" cy="202.5" r="77.5"/>
                    </g>
                    <g transform="matrix(0.206452,0,0,0.206452,1044.602852,216.154562)">
                        <circle cx="268.5" cy="202.5" r="77.5"/>
                    </g>
                    <g transform="matrix(0.052289,0,0,0.052289,1046.869111,241.424922)">
                        <circle cx="268.5" cy="202.5" r="77.5" style="fill:white;"/>
                    </g>
                    <g transform="matrix(0.129708,0,0,0.129708,1002.272165,265.557352)">
                        <circle cx="268.5" cy="202.5" r="77.5" style="fill:rgb(230,228,228);"/>
                    </g>
                    <g transform="matrix(0.129708,0,0,0.129708,1083.54588,265.557352)">
                        <circle cx="268.5" cy="202.5" r="77.5" style="fill:rgb(230,228,228);"/>
                    </g>
                    <g transform="matrix(0.013579,0,0,0.013579,1061.966904,252.967876)">
                        <circle cx="268.5" cy="202.5" r="77.5" style="fill:white;"/>
                    </g>
                    <g transform="matrix(0.013579,0,0,0.013579,1107.592074,252.967876)">
                        <circle cx="268.5" cy="202.5" r="77.5" style="fill:white;"/>
                    </g>
                    <g transform="matrix(0.052289,0,0,0.052289,1090.683781,241.424922)">
                        <circle cx="268.5" cy="202.5" r="77.5" style="fill:white;"/>
                    </g>
                    <g transform="matrix(0.322581,0,0,0.240261,991.106468,241.925084)">
                        <path d="M345.19,191.267C345.724,194.935 346,198.685 346,202.5C346,245.273 311.273,280 268.5,280C225.727,280 191,245.273 191,202.5C191,198.685 191.276,194.935 191.81,191.267C213.326,200.624 239.838,206.149 268.5,206.149C297.162,206.149 323.674,200.624 345.19,191.267Z" style="fill:rgb(119,119,119);"/>
                    </g>
                </g>
            </g>
        </g>
    </g>
</svg>
